HIERARCHY
ROOT Hips
{
	OFFSET -3.958830 18.904000 13.208200
	CHANNELS 6 Xposition Yposition Zposition Zrotation Yrotation Xrotation 
	JOINT LHipJoint
	{
		OFFSET 0.000000 0.000000 0.000000
		CHANNELS 3 Zrotation Yrotation Xrotation
		JOINT LeftUpLeg
		{
			OFFSET 1.800000 -1.400000 0.085000
			CHANNELS 3 Zrotation Yrotation Xrotation
			JOINT LeftLeg
			{
				OFFSET 2.215000 -6.000000 0.000000
				CHANNELS 3 Zrotation Yrotation Xrotation
				JOINT LeftFoot
				{
					OFFSET 2.500000 -6.900000 0.000000
					CHANNELS 3 Zrotation Yrotation Xrotation
					JOINT LeftToeBase
					{
						OFFSET 0.200000 -0.500000 1.950000
						CHANNELS 3 Zrotation Yrotation Xrotation
						End Site
						{
							OFFSET 0.000000 0.000000 0.000000
						}
					}
				}
			}
		}
	}
	JOINT RHipJoint
	{
		OFFSET 0.000000 0.000000 0.000000
		CHANNELS 3 Zrotation Yrotation Xrotation
		JOINT RightUpLeg
		{
			OFFSET -1.800000 -1.400000 0.085000
			CHANNELS 3 Zrotation Yrotation Xrotation
			JOINT RightLeg
			{
				OFFSET -2.215000 -6.000000 0.000000
				CHANNELS 3 Zrotation Yrotation Xrotation
				JOINT RightFoot
				{
					OFFSET -2.500000 -6.900000 0.000000
					CHANNELS 3 Zrotation Yrotation Xrotation
					JOINT RightToeBase
					{
						OFFSET -0.200000 -0.500000 1.950000
						CHANNELS 3 Zrotation Yrotation Xrotation
						End Site
						{
							OFFSET 0.000000 0.000000 0.000000
						}
					}
				}
			}
		}
	}
	JOINT LowerBack
	{
		OFFSET 0.000000 0.000000 0.000000
		CHANNELS 3 Zrotation Yrotation Xrotation
		JOINT Spine
		{
			OFFSET -0.087000 1.940000 -0.288900
			CHANNELS 3 Zrotation Yrotation Xrotation
			JOINT Spine1
			{
				OFFSET 0.000000 1.950000 0.060000
				CHANNELS 3 Zrotation Yrotation Xrotation
				JOINT Neck
				{
					OFFSET 0.000000 0.000000 0.000000
					CHANNELS 3 Zrotation Yrotation Xrotation
					JOINT Neck1
					{
						OFFSET 0.000000 1.600000 0.340000
						CHANNELS 3 Zrotation Yrotation Xrotation
						JOINT Head
						{
							OFFSET 0.000000 1.667000 -0.240000
							CHANNELS 3 Zrotation Yrotation Xrotation
							End Site
							{
								OFFSET 0.000000 0.000000 0.000000
							}
						}
					}
				}
				JOINT LeftShoulder
				{
					OFFSET 0.000000 0.000000 0.000000
					CHANNELS 3 Zrotation Yrotation Xrotation
					JOINT LeftArm
					{
						OFFSET 2.700000 1.550000 -0.730000
						CHANNELS 3 Zrotation Yrotation Xrotation
						JOINT LeftForeArm
						{
							OFFSET 5.450000 0.000000 0.000000
							CHANNELS 3 Zrotation Yrotation Xrotation
							JOINT LeftHand
							{
								OFFSET 3.450000 0.000000 0.000000
								CHANNELS 3 Zrotation Yrotation Xrotation
								JOINT LeftHandIndex1
								{
									OFFSET 0.750000 0.000000 0.000000
									CHANNELS 3 Zrotation Yrotation Xrotation
									End Site
									{
										OFFSET 0.000000 0.000000 0.000000
									}
								}
							}
						}
					}
				}
				JOINT RightShoulder
				{
					OFFSET 0.000000 0.000000 0.000000
					CHANNELS 3 Zrotation Yrotation Xrotation
					JOINT RightArm
					{
						OFFSET -2.700000 1.550000 -0.730000
						CHANNELS 3 Zrotation Yrotation Xrotation
						JOINT RightForeArm
						{
							OFFSET -5.450000 0.000000 0.000000
							CHANNELS 3 Zrotation Yrotation Xrotation
							JOINT RightHand
							{
								OFFSET -3.450000 0.000000 0.000000
								CHANNELS 3 Zrotation Yrotation Xrotation
								JOINT RightHandIndex1
								{
									OFFSET -0.750000 0.000000 0.000000
									CHANNELS 3 Zrotation Yrotation Xrotation
									End Site
									{
										OFFSET 0.000000 0.000000 0.000000
									}
								}
							}
						}
					}
				}
			}
		}
	}
}
MOTION
Frames: 6
Frame Time: 0.016667
0.451200 15.713950 -1.723780 -3.224966 14.653113 -16.354681 -15.871032 12.159525 5.492715 30.386993 -3.848648 -39.475339 -4.169927 18.026133 59.238616 0.302965 12.173328 0.107453 0.791370 0.164290 0.761750 17.928688 -8.905287 2.309893 -31.688077 3.848867 -21.462484 9.791593 -19.203939 58.435916 -1.762739 -10.146578 0.903985 0.108540 -0.012740 0.200920 -2.214120 -4.366594 -9.354624 -5.959622 7.888767 47.615416 9.094063 6.970368 14.799169 -3.803744 -7.610328 -25.583856 -30.817000 12.269552 66.328554 12.175740 -1.612610 -18.359600 -8.440193 -40.927882 1.113759 -0.006244 -33.821712 -1.222987 138.895287 -53.426916 -118.240616 -3.417635 2.728831 1.254500 -0.277850 0.263350 0.131640 20.254565 47.067659 20.784475 32.475375 32.374792 -4.306021 0.502178 16.177079 0.104833 1.841835 -0.940925 -0.296530 0.408070 -0.017850 -0.482840 
0.460070 15.697070 -1.725360 -3.286390 14.635903 -16.453987 -15.874085 12.150433 5.543082 30.579465 -4.004674 -39.618638 -4.312071 18.206746 59.599565 0.312572 12.247014 0.073271 0.807290 0.171360 0.780360 17.926733 -8.936662 2.251605 -31.309270 3.754493 -21.553570 8.842654 -18.812142 59.049169 -1.768089 -10.132282 0.900746 0.113270 -0.037850 0.204900 -2.209905 -4.344123 -9.351163 -6.252800 7.916390 47.723424 9.042476 6.908316 14.639972 -3.633075 -7.529834 -26.006721 -30.818865 12.639169 67.438773 11.769200 -1.375050 -17.934510 -8.580649 -41.175777 1.227630 0.220209 -33.236060 -1.499811 139.088107 -53.932068 -119.297463 -3.384381 2.780291 1.267260 -0.289450 0.274020 0.128700 20.172438 47.350014 20.835580 32.525298 32.708713 -4.020609 1.041698 15.872607 0.199042 1.852294 -0.937664 -0.291970 0.391160 -0.025020 -0.495510 
0.477570 15.668290 -1.725680 -3.260503 14.645271 -16.536538 -15.866858 12.112780 5.619309 30.751241 -4.300818 -39.871329 -4.539123 18.536573 60.261097 0.368616 12.344897 0.031640 0.849590 0.228920 0.817220 17.935091 -9.023120 2.152588 -30.758298 3.507178 -21.811780 6.984933 -18.015761 60.184109 -1.779450 -10.100636 0.906969 0.132370 -0.082850 0.208040 -2.237697 -4.217976 -9.343876 -6.894014 7.932534 47.535840 8.736036 6.669750 14.850252 -3.587665 -7.132117 -26.474422 -29.773043 12.847455 69.441759 11.270880 -0.596140 -17.190380 -8.279200 -41.652274 1.400005 0.908722 -32.112633 -2.187588 139.022302 -54.642693 -120.403116 -3.327927 2.870489 1.254810 -0.301730 0.299450 0.129980 19.708549 47.703178 20.918250 32.725700 33.514717 -3.552206 1.009048 15.447040 0.205961 1.880076 -0.959227 -0.257030 0.358900 -0.060440 -0.498500 
0.499880 15.639800 -1.722950 -3.282282 14.506538 -16.833719 -15.877818 12.143335 5.679462 30.953868 -4.526928 -39.868262 -4.702881 18.858892 60.964600 0.439592 12.429312 -0.002437 0.906160 0.307830 0.857250 17.921679 -9.095452 2.027573 -30.123230 3.293586 -21.794595 5.124661 -17.061528 61.091252 -1.792702 -10.020165 0.936578 0.157810 -0.138560 0.206220 -2.208124 -4.225853 -9.307719 -7.723713 8.130641 47.461632 8.891161 6.511290 15.041151 -3.477351 -6.927537 -26.960108 -29.508246 13.362687 71.265606 10.735760 0.093450 -16.851200 -8.202418 -41.882185 1.631138 1.128326 -31.263009 -2.691285 138.844361 -55.213559 -121.201626 -3.260856 2.942167 1.242300 -0.324680 0.335870 0.143740 19.439422 47.977379 21.018541 32.767819 33.936006 -3.342943 1.059168 15.294643 0.210521 1.902507 -0.986140 -0.213290 0.329390 -0.111570 -0.495660 
0.520240 15.619850 -1.717010 -3.334362 14.339982 -17.456307 -15.879412 12.238561 5.681660 30.889540 -4.775088 -39.562769 -4.367954 18.870635 61.841362 0.483505 12.506054 -0.022336 0.917270 0.334330 0.864140 17.903686 -9.187260 1.913605 -29.546116 3.182898 -21.441662 3.507021 -16.168514 61.873013 -1.799956 -9.947843 0.962162 0.164640 -0.152880 0.196790 -2.190219 -4.278118 -9.245627 -8.385391 8.358151 47.974758 9.053243 6.480104 15.104937 -3.361240 -6.983181 -27.562941 -30.157937 14.151748 72.272552 10.625820 0.417240 -16.702860 -8.491777 -42.147802 1.638744 1.492147 -30.694908 -3.120505 138.509777 -55.564565 -121.321405 -3.228941 2.958284 1.245420 -0.338540 0.355280 0.149210 19.685021 48.261731 21.398322 32.379320 34.069626 -3.516913 1.166985 15.308757 0.233493 1.910967 -0.973702 -0.204740 0.336800 -0.125110 -0.489970 
0.538380 15.603320 -1.711290 -3.398362 14.125579 -18.124883 -15.874934 12.320238 5.659602 30.702675 -4.969937 -39.302353 -3.715230 18.754131 62.933022 0.525379 12.583474 -0.042634 0.935940 0.361670 0.878460 17.892441 -9.256639 1.845017 -29.273547 3.159199 -21.031542 2.578794 -15.632079 62.372342 -1.811620 -9.914122 0.978470 0.173950 -0.168270 0.189920 -2.189400 -4.312409 -9.198565 -8.804007 8.607321 48.636155 9.068299 6.601782 15.211608 -3.276416 -7.033961 -28.055047 -30.730074 14.722094 72.725899 10.738080 0.650670 -16.766860 -8.718947 -42.480315 1.450092 1.905903 -30.528844 -3.414146 138.173819 -55.610822 -120.923634 -3.206759 2.964828 1.248420 -0.350820 0.370530 0.155050 19.925567 48.608089 21.786879 31.752030 34.093642 -3.711855 1.618920 15.304776 0.289474 1.916239 -0.959553 -0.195660 0.339160 -0.142300 -0.488280 
